<svg width="20" height="20" viewBox="0 0 20 20" fill="none" xmlns="http://www.w3.org/2000/svg">
<path fill-rule="evenodd" clip-rule="evenodd" d="M5.63702 1.395C3.06002 1.395 1.39502 3.162 1.39502 5.888V14.102C1.39502 14.867 1.53702 15.55 1.78002 16.141C1.79052 16.1285 2.01937 15.8496 2.31791 15.4858C2.90139 14.7747 3.75107 13.7393 3.75702 13.734C4.44902 12.944 5.74802 11.766 7.45302 12.479C7.82664 12.6339 8.15873 12.8461 8.46444 13.0415C8.49421 13.0605 8.52374 13.0794 8.55302 13.098C9.12602 13.481 9.46302 13.661 9.81302 13.631C9.95802 13.611 10.094 13.568 10.223 13.488C10.7097 13.188 11.9713 11.4004 12.3491 10.8651C12.4045 10.7866 12.4409 10.735 12.453 10.719C13.543 9.299 15.223 8.919 16.623 9.759C16.811 9.871 18.158 10.812 18.604 11.19V5.888C18.604 3.162 16.939 1.395 14.353 1.395H5.63702ZM14.353 0C17.73 0 19.999 2.362 19.999 5.888V14.102C19.999 14.1907 19.9897 14.2738 19.9804 14.357C19.9739 14.4154 19.9673 14.4737 19.964 14.534C19.9619 14.5704 19.9608 14.6069 19.9598 14.6433C19.9584 14.6919 19.957 14.7404 19.953 14.789C19.951 14.808 19.9473 14.8263 19.9435 14.8445C19.9398 14.8627 19.936 14.881 19.934 14.9C19.901 15.214 19.85 15.514 19.779 15.805C19.7622 15.8777 19.7429 15.9478 19.7233 16.0186L19.719 16.034C19.639 16.316 19.545 16.585 19.432 16.842C19.4122 16.8852 19.3913 16.9273 19.3705 16.9695C19.3565 16.9975 19.3426 17.0256 19.329 17.054C19.207 17.299 19.075 17.534 18.922 17.752C18.8937 17.7924 18.8636 17.8302 18.8334 17.8681C18.8135 17.8931 18.7935 17.9181 18.774 17.944C18.615 18.15 18.449 18.347 18.261 18.526C18.2235 18.5617 18.1829 18.5944 18.1424 18.627C18.117 18.6474 18.0916 18.6678 18.067 18.689C17.874 18.855 17.677 19.014 17.46 19.15C17.4127 19.1798 17.3624 19.2047 17.3122 19.2296C17.2798 19.2457 17.2474 19.2617 17.216 19.279C16.995 19.401 16.772 19.52 16.529 19.612C16.4706 19.6342 16.4083 19.6503 16.346 19.6664C16.3016 19.6778 16.2572 19.6893 16.214 19.703C16.1924 19.7097 16.1708 19.7164 16.1492 19.7231C15.9321 19.7907 15.7158 19.858 15.482 19.898C15.3466 19.9217 15.2029 19.9308 15.0591 19.94C14.9969 19.9439 14.9346 19.9479 14.873 19.953C14.8068 19.9579 14.7419 19.9659 14.6769 19.9739C14.5711 19.987 14.4651 20 14.353 20H5.63702C5.26102 20 4.90202 19.962 4.55502 19.905C4.54202 19.903 4.53002 19.901 4.51802 19.899C3.16502 19.666 2.04202 19.013 1.25502 18.028C1.24956 18.028 1.24741 18.0243 1.24455 18.0194C1.2427 18.0162 1.24056 18.0125 1.23702 18.009C0.446023 17.013 -0.000976562 15.674 -0.000976562 14.102V5.888C-0.000976562 2.362 2.27002 0 5.63702 0H14.353ZM8.99962 6.51456C8.99962 7.86951 7.8659 8.9996 6.50447 8.9996C5.30776 8.9996 4.28741 8.12525 4.05873 6.99323C4.02094 6.82338 3.99962 6.6487 3.99962 6.46824C3.99962 5.10363 5.10815 3.9996 6.47831 3.9996C7.17598 3.9996 7.80776 4.29298 8.26028 4.76104C8.71474 5.21269 8.99962 5.83515 8.99962 6.51456Z" fill="#6069E0"/>
</svg>
