<svg width="18" height="18" viewBox="0 0 18 18" fill="none" xmlns="http://www.w3.org/2000/svg">
<path fill-rule="evenodd" clip-rule="evenodd" d="M7.81503 0.166016C3.5861 0.166016 0.166992 3.62965 0.166992 7.89095C0.166992 12.1523 3.5861 15.6159 7.81503 15.6159C12.0439 15.6159 15.4631 12.1523 15.4631 7.89095C15.4631 5.84389 14.6586 3.8796 13.2249 2.43049C11.791 0.981205 9.84515 0.166016 7.81503 0.166016ZM1.16699 7.89095C1.16699 4.17181 4.14845 1.16602 7.81503 1.16602C9.57646 1.16602 11.2668 1.87322 12.514 3.13381C13.7614 4.39458 14.4631 6.10567 14.4631 7.89095C14.4631 11.6101 11.4816 14.6159 7.81503 14.6159C4.14845 14.6159 1.16699 11.6101 1.16699 7.89095ZM14.8448 13.7112L16.9737 15.4297H17.0106C17.4413 15.865 17.4413 16.5708 17.0106 17.0062C16.5799 17.4415 15.8816 17.4415 15.4509 17.0062L13.6842 14.9814C13.5172 14.8132 13.4234 14.5847 13.4234 14.3463C13.4234 14.108 13.5172 13.8795 13.6842 13.7112C14.0064 13.3913 14.5227 13.3913 14.8448 13.7112Z" fill="#6069E0"/>
</svg>
